<svg width="54" height="55" viewBox="0 0 54 55" fill="none" xmlns="http://www.w3.org/2000/svg">
<rect y="0.931641" width="54" height="54" rx="12" fill="#F79444"/>
<path d="M27 31.9316L26.2929 32.6387L27 33.3459L27.7071 32.6387L27 31.9316ZM28 19.9316C28 19.3794 27.5523 18.9316 27 18.9316C26.4477 18.9316 26 19.3794 26 19.9316L28 19.9316ZM20.2929 26.6387L26.2929 32.6387L27.7071 31.2245L21.7071 25.2245L20.2929 26.6387ZM27.7071 32.6387L33.7071 26.6387L32.2929 25.2245L26.2929 31.2245L27.7071 32.6387ZM28 31.9316L28 19.9316L26 19.9316L26 31.9316L28 31.9316Z" fill="white"/>
<path d="M20 36.9316L34 36.9316" stroke="white" stroke-width="2"/>
</svg>
