<svg width="147" height="38" viewBox="0 0 147 38" fill="none" xmlns="http://www.w3.org/2000/svg">
<path d="M41.5773 12.3391H41.5009L41.4689 12.4084L35.6415 25.0358L35.5633 25.2053H35.75H36.7153H36.7923L36.8241 25.1351L38.3807 21.694H45.6117L47.1733 25.1352L47.2051 25.2053H47.2821H48.2984H48.4851L48.4069 25.0358L42.5796 12.4084L42.5475 12.3391H42.4711H41.5773ZM38.8826 20.6157L42.006 13.7657L45.1101 20.6157H38.8826Z" fill="#F79444" stroke="#F79444" stroke-width="0.238883"/>
<path d="M56.9548 16.1409L56.954 16.1405C56.644 15.9773 56.3136 15.8513 55.9531 15.757C55.5893 15.6619 55.1909 15.6149 54.7533 15.6149C54.0784 15.6149 53.4538 15.7461 52.8707 16.0094C52.2895 16.2718 51.7863 16.6342 51.362 17.0857C50.9328 17.5421 50.6032 18.0613 50.363 18.6476C50.1219 19.2358 50.0017 19.8604 50.0017 20.5202V20.556C50.0017 21.2158 50.1219 21.8404 50.363 22.4286C50.6035 23.0155 50.9386 23.5299 51.3629 23.971C51.7876 24.4123 52.2905 24.7639 52.8707 25.0258C53.4539 25.2891 54.0836 25.4203 54.7533 25.4203C55.6016 25.4203 56.3339 25.2482 56.9542 24.8713C57.5578 24.5217 58.0935 24.0784 58.5661 23.5423L58.645 23.4528L58.5556 23.3738L57.9479 22.8364L57.8587 22.7576L57.7796 22.8464C57.4049 23.2669 56.9705 23.6222 56.4761 23.9075C55.9902 24.1879 55.434 24.3317 54.8095 24.3317C54.2988 24.3317 53.8305 24.2374 53.3928 24.0403C52.9515 23.8415 52.5663 23.5739 52.2408 23.2279C51.9139 22.8805 51.6513 22.4734 51.4627 22.0059L51.4627 22.0059L51.4623 22.0049C51.2695 21.5393 51.1752 21.0431 51.1752 20.5099V20.4741C51.1752 19.9409 51.2696 19.444 51.4527 18.9826C51.6363 18.5203 51.8887 18.1235 52.2054 17.7813C52.5214 17.4449 52.8915 17.1777 53.3266 16.9795C53.7546 16.7873 54.2229 16.6881 54.7329 16.6881C55.3988 16.6881 55.953 16.8373 56.4057 17.1202C56.8726 17.4171 57.2994 17.7643 57.6861 18.1619L57.7716 18.2499L57.8573 18.162L58.4855 17.5171L58.5657 17.4346L58.4864 17.3513C58.2687 17.1228 58.0355 16.9047 57.787 16.6971C57.5349 16.4866 57.2573 16.303 56.9548 16.1409Z" fill="#F79444" stroke="#F79444" stroke-width="0.238883"/>
<path d="M62.4269 22.6394V16.8777H65.5097H65.6291V16.7582V15.9495V15.8301H65.5097H62.4269V13.0269V12.9074H62.3074H61.4341H61.3147V13.0269V15.8301H60.1113H59.9919V15.9495V16.7582V16.8777H60.1113H61.3198V22.7418C61.3198 23.1825 61.3825 23.5728 61.5231 23.9088C61.6622 24.2413 61.8559 24.517 62.0992 24.7392C62.3434 24.9621 62.63 25.1187 62.9562 25.2205C63.2808 25.3218 63.6249 25.3693 63.9928 25.3693C64.2855 25.3693 64.5551 25.3431 64.7904 25.2895C65.0295 25.2363 65.272 25.1515 65.5176 25.0415L65.5882 25.0099V24.9325V24.1084V23.9266L65.4214 23.9988C65.1661 24.1092 64.9434 24.1833 64.7479 24.2273C64.5537 24.2711 64.3482 24.291 64.1307 24.291C63.6149 24.291 63.2078 24.1633 62.8906 23.9213C62.5913 23.693 62.4269 23.278 62.4269 22.6394Z" fill="#F79444" stroke="#F79444" stroke-width="0.238883"/>
<path d="M68.1191 12.2468H67.9997V12.3662V13.5691V13.6885H68.1191H69.207H69.3264V13.5691V12.3662V12.2468H69.207H68.1191ZM68.2264 15.8297H68.107V15.9492V25.0857V25.2051H68.2264H69.0997H69.2192V25.0857V15.9492V15.8297H69.0997H68.2264Z" fill="#F79444" stroke="#F79444" stroke-width="0.238883"/>
<path d="M71.625 15.8298H71.4412L71.5158 15.9977L75.6067 25.2059L75.6382 25.2768H75.7159H76.4666H76.5442L76.5758 25.2059L80.6718 15.9978L80.7465 15.8298H80.5626H79.5769H79.4981L79.4671 15.9023L76.0944 23.7976L72.7565 15.9027L72.7256 15.8298H72.6464H71.625Z" fill="#F79444" stroke="#F79444" stroke-width="0.238883"/>
<path d="M83.3975 20.9979H90.8273H90.9239L90.9441 20.9034C90.9609 20.8248 90.9672 20.7601 90.9672 20.7096V20.7093V20.7091V20.7088V20.7086V20.7083V20.7081V20.7079V20.7076V20.7074V20.7071V20.7069V20.7066V20.7064V20.7061V20.7059V20.7056V20.7054V20.7051V20.7049V20.7046V20.7044V20.7041V20.7039V20.7036V20.7034V20.7031V20.7029V20.7026V20.7023V20.7021V20.7018V20.7016V20.7013V20.7011V20.7008V20.7005V20.7003V20.7V20.6998V20.6995V20.6992V20.699V20.6987V20.6984V20.6982V20.6979V20.6976V20.6974V20.6971V20.6968V20.6966V20.6963V20.696V20.6958V20.6955V20.6952V20.6949V20.6947V20.6944V20.6941V20.6938V20.6936V20.6933V20.693V20.6927V20.6925V20.6922V20.6919V20.6916V20.6913V20.6911V20.6908V20.6905V20.6902V20.6899V20.6897V20.6894V20.6891V20.6888V20.6885V20.6882V20.688V20.6877V20.6874V20.6871V20.6868V20.6865V20.6862V20.6859V20.6856V20.6854V20.6851V20.6848V20.6845V20.6842V20.6839V20.6836V20.6833V20.683V20.6827V20.6824V20.6821V20.6818V20.6815V20.6812V20.6809V20.6806V20.6803V20.68V20.6797V20.6794V20.6791V20.6788V20.6785V20.6782V20.6779V20.6776V20.6773V20.677V20.6767V20.6764V20.6761V20.6758V20.6754V20.6751V20.6748V20.6745V20.6742V20.6739V20.6736V20.6733V20.673V20.6726V20.6723V20.672V20.6717V20.6714V20.6711V20.6707V20.6704V20.6701V20.6698V20.6695V20.6692V20.6688V20.6685V20.6682V20.6679V20.6676V20.6672V20.6669V20.6666V20.6663V20.6659V20.6656V20.6653V20.665V20.6646V20.6643V20.664V20.6637V20.6633V20.663V20.6627V20.6623V20.662V20.6617V20.6613V20.661V20.6607V20.6603V20.66V20.6597V20.6593V20.659V20.6587V20.6583V20.658V20.6577V20.6573V20.657V20.6566V20.6563V20.656V20.6556V20.6553V20.6549V20.6546V20.6543V20.6539V20.6536V20.6532V20.6529V20.6525V20.6522V20.6518V20.6515V20.6512V20.6508V20.6505V20.6501V20.6498V20.6494V20.6491V20.6487V20.6484V20.648V20.6477V20.6473V20.647V20.6466V20.6463V20.6459V20.6455V20.6452V20.6448V20.6445V20.6441V20.6438V20.6434V20.643V20.6427V20.6423V20.642V20.6416V20.6412V20.6409V20.6405V20.6402V20.6398V20.6394V20.6391V20.6387V20.6383V20.638V20.6376V20.6373V20.6369V20.6365V20.6362V20.6358V20.6354V20.635V20.6347V20.6343V20.6339V20.6336V20.6332V20.6328V20.6325V20.6321V20.6317V20.6313V20.631V20.6306V20.6302V20.6298V20.6295V20.6291V20.6287V20.6283V20.628V20.6276V20.6272V20.6268V20.6264V20.6261V20.6257V20.6253V20.6249V20.6245V20.6242V20.6238V20.6234V20.623V20.6226V20.6222V20.6219V20.6215V20.6211V20.6207V20.6203V20.6199V20.6195V20.6191V20.6188V20.6184V20.618V20.6176V20.6172V20.6168V20.6164V20.616V20.6156V20.6152V20.6148V20.6145V20.6141V20.6137V20.6133V20.6129V20.6125V20.6121V20.6117V20.6113V20.6109V20.6105V20.6101V20.6097V20.6093V20.6089V20.6085V20.6081V20.6077V20.6073V20.6069V20.6065V20.6061V20.6057V20.6053V20.6049V20.6045V20.6041V20.6037V20.6033V20.6029V20.6024V20.602V20.6016V20.6012V20.6008V20.6004V20.6V20.5996V20.5992V20.5988V20.5984V20.5979V20.5975V20.5971V20.5967V20.5963V20.5959V20.5955V20.595V20.5946V20.5942V20.5938V20.5934V20.593V20.5926V20.5921V20.5917V20.5913V20.5909V20.5905V20.59V20.5896V20.5892V20.5888V20.5884V20.5879V20.5875V20.5871V20.5867V20.5862V20.5858V20.5854V20.585V20.5845V20.5841V20.5837V20.5833V20.5828V20.5824V20.582V20.5816V20.5811V20.5807V20.5803V20.5798V20.5794V20.579V20.5785V20.5781V20.5777V20.5773V20.5768V20.5764V20.576V20.5755V20.5751V20.5747V20.5742V20.5738V20.5733V20.5729V20.5725V20.572V20.5716V20.5712V20.5707V20.5703V20.5698V20.5694V20.569V20.5685V20.5681V20.5676V20.5672V20.5668V20.5663V20.5659V20.5654V20.565V20.5645V20.5641V20.5637V20.5632V20.5628V20.5623V20.5619V20.5614V20.561V20.5605V20.5601V20.5596V20.5592V20.5587V20.5583V20.5578V20.5574V20.5569V20.5565V20.556V20.5556V20.5551V20.5547V20.5542V20.5538V20.5533V20.5529V20.5524V20.552V20.5515V20.5511V20.5506V20.5501V20.5497V20.5492V20.5488V20.5483V20.5479V20.5474V20.5469V20.5465V20.546V20.5456V20.5451V20.5446V20.5442V20.5437V20.5432V20.5428V20.5423V20.5419V20.5414V20.5409V20.5405V20.54V20.5395V20.5391V20.5386V20.5381V20.5377V20.5372V20.5367V20.5363V20.5358V20.5353V20.5349V20.5344V20.5339V20.5335V20.533V20.5325V20.5321V20.5316V20.5311V20.5306V20.5302V20.5297V20.5292V20.5287V20.5283V20.5278V20.5273V20.5269V20.5264V20.5259V20.5254V20.5249V20.5245V20.524V20.5235V20.523V20.5226V20.5221V20.5216V20.5211V20.5206V20.5202C90.9672 19.8282 90.8685 19.1854 90.6646 18.593C90.4661 18.0016 90.1782 17.4816 89.8052 17.0394C89.4315 16.5963 88.9787 16.2481 88.4531 15.9953L88.4527 15.9951C87.919 15.7409 87.324 15.6149 86.6649 15.6149C86.0306 15.6149 85.4408 15.7411 84.8975 16.0002L84.8975 16.0002L84.8966 16.0006C84.3573 16.263 83.8903 16.61 83.4915 17.0517C83.0928 17.4933 82.7788 18.013 82.5543 18.6044C82.3293 19.1969 82.2145 19.8306 82.2145 20.4997V20.5355C82.2145 21.2601 82.3342 21.931 82.581 22.5311C82.8263 23.1274 83.1562 23.6424 83.5819 24.0744C84.0067 24.5054 84.5 24.8367 85.0558 25.068C85.0559 25.0681 85.0561 25.0681 85.0562 25.0682L83.3975 20.9979ZM83.3975 20.9979C83.4424 21.5009 83.5631 21.9495 83.7539 22.3412C83.9627 22.7696 84.2252 23.1315 84.5359 23.4281C84.8464 23.7244 85.2009 23.9514 85.6 24.1095L83.3975 20.9979ZM89.7816 19.9605H83.3936C83.438 19.5201 83.5478 19.1055 83.7152 18.72C83.899 18.297 84.1368 17.9347 84.4186 17.6274C84.704 17.3218 85.0332 17.0854 85.4121 16.9128C85.7886 16.7413 86.1954 16.6574 86.6343 16.6574C87.1444 16.6574 87.5853 16.7566 87.9597 16.9416C88.3389 17.1342 88.6573 17.385 88.9168 17.6988C89.1784 18.0205 89.381 18.3818 89.5245 18.7936C89.6544 19.166 89.7401 19.5549 89.7816 19.9605Z" fill="#F79444" stroke="#F79444" stroke-width="0.238883"/>
<path d="M101.393 19.5002L101.394 19.4998C101.852 19.1564 102.222 18.7229 102.49 18.2054C102.761 17.6893 102.897 17.0862 102.897 16.415V16.3792C102.897 15.7553 102.782 15.1947 102.548 14.7052C102.316 14.2179 101.988 13.8042 101.56 13.4652C101.133 13.1276 100.635 12.8702 100.055 12.6923C99.475 12.5142 98.8347 12.426 98.1353 12.426H93.595H93.5898H93.4704V12.5454V25.0806V25.2H93.5898H94.5194H94.6388V25.0806V20.5269H97.9003C98.5641 20.5269 99.1983 20.4437 99.8023 20.2715L99.8026 20.2714C100.403 20.0989 100.931 19.842 101.393 19.5002ZM99.5156 19.2386C99.0483 19.3781 98.5289 19.4485 97.9565 19.4485H94.649V13.5043H98.0689C98.6212 13.5043 99.1207 13.5697 99.5733 13.6993C100.026 13.829 100.416 14.0175 100.734 14.2582C101.051 14.4975 101.299 14.8 101.475 15.1619C101.65 15.5215 101.739 15.9433 101.739 16.4355V16.4713C101.739 16.9249 101.646 17.3314 101.466 17.6976C101.279 18.0664 101.03 18.3799 100.702 18.6397C100.372 18.896 99.9774 19.0992 99.5156 19.2386Z" fill="#8DC63F" stroke="#8DC63F" stroke-width="0.238883"/>
<path d="M105.463 11.8884H105.343V12.0078V25.0856V25.205H105.463H106.336H106.456V25.0856V12.0078V11.8884H106.336H105.463Z" fill="#8DC63F" stroke="#8DC63F" stroke-width="0.238883"/>
<path d="M115.927 19.6641C115.53 19.5628 115.122 19.4783 114.706 19.4141C114.233 19.3413 113.675 19.3052 113.028 19.3052C112.421 19.3052 111.869 19.3727 111.367 19.509C110.866 19.6452 110.438 19.8401 110.077 20.1007C109.716 20.3621 109.433 20.6881 109.23 21.0729C109.02 21.4615 108.92 21.9063 108.92 22.3985V22.4344C108.92 22.9277 109.026 23.369 109.247 23.7486C109.465 24.1214 109.747 24.4306 110.093 24.6808C110.436 24.93 110.822 25.1152 111.254 25.2365C111.683 25.3571 112.117 25.4201 112.558 25.4201C112.996 25.4201 113.406 25.368 113.787 25.2515C114.157 25.147 114.492 25.0107 114.786 24.8472C115.08 24.6842 115.344 24.494 115.572 24.2763C115.702 24.1519 115.823 24.0267 115.932 23.8999V25.0806V25.2001H116.051H116.909H117.029V25.0806V19.3837C117.029 18.26 116.71 17.3667 116.064 16.7196C115.366 16.02 114.372 15.6813 113.099 15.6813C112.457 15.6813 111.874 15.7539 111.351 15.906C110.827 16.0514 110.315 16.2485 109.809 16.4972L109.708 16.5466L109.751 16.6503L110.073 17.4232L110.123 17.5426L110.238 17.4835C110.649 17.2721 111.082 17.1008 111.54 16.9646C111.992 16.8302 112.491 16.7648 113.043 16.7648C113.963 16.7648 114.668 16.9951 115.171 17.4317C115.668 17.8629 115.927 18.521 115.927 19.4247V19.6641ZM115.68 22.7464L115.68 22.7471C115.505 23.0791 115.266 23.3578 114.962 23.5936C114.657 23.8255 114.306 24.0088 113.899 24.1431C113.494 24.277 113.067 24.3418 112.614 24.3418C112.278 24.3418 111.957 24.2973 111.642 24.2035L111.641 24.2031C111.332 24.1147 111.064 23.9826 110.831 23.812C110.598 23.6424 110.416 23.4401 110.282 23.2002C110.151 22.9645 110.083 22.6882 110.083 22.3729V22.3371C110.083 21.7354 110.325 21.2539 110.811 20.8924C111.304 20.5294 112.015 20.3375 112.967 20.3375C113.615 20.3375 114.195 20.3832 114.698 20.4689L114.698 20.4689C115.172 20.5487 115.583 20.6327 115.942 20.7208V21.6615C115.942 22.058 115.854 22.4222 115.68 22.7464Z" fill="#8DC63F" stroke="#8DC63F" stroke-width="0.238883"/>
<path d="M121.044 15.9496V15.8302H120.924H120.175H120.056H120.051V15.9496H119.936V25.0912V25.2107H120.056H120.929H121.049V25.0912V19.8038C121.049 19.3407 121.123 18.9162 121.28 18.5336L121.28 18.5336L121.28 18.5324C121.433 18.1477 121.649 17.8187 121.923 17.5439C122.198 17.2682 122.517 17.0519 122.885 16.8994C123.253 16.747 123.651 16.6679 124.091 16.6679C124.995 16.6679 125.673 16.9406 126.146 17.4771C126.623 18.0184 126.867 18.7454 126.867 19.6656V25.0912V25.2107H126.986H127.86H127.979V25.0912V19.5018C127.979 18.9381 127.901 18.4229 127.732 17.9474C127.569 17.4716 127.32 17.0575 126.991 16.7118C126.662 16.3664 126.265 16.0959 125.795 15.9055C125.324 15.7146 124.798 15.6203 124.213 15.6203C123.363 15.6203 122.658 15.8085 122.107 16.1947C121.683 16.4914 121.331 16.8432 121.044 17.2474V15.9496Z" fill="#8DC63F" stroke="#8DC63F" stroke-width="0.238883"/>
<path d="M131.446 20.9979H138.876H138.973L138.993 20.9034C139.01 20.8248 139.016 20.7601 139.016 20.7096V20.7093V20.7091V20.7088V20.7086V20.7083V20.7081V20.7079V20.7076V20.7074V20.7071V20.7069V20.7066V20.7064V20.7061V20.7059V20.7056V20.7054V20.7051V20.7049V20.7046V20.7044V20.7041V20.7039V20.7036V20.7034V20.7031V20.7029V20.7026V20.7023V20.7021V20.7018V20.7016V20.7013V20.7011V20.7008V20.7005V20.7003V20.7V20.6998V20.6995V20.6992V20.699V20.6987V20.6984V20.6982V20.6979V20.6976V20.6974V20.6971V20.6968V20.6966V20.6963V20.696V20.6958V20.6955V20.6952V20.6949V20.6947V20.6944V20.6941V20.6938V20.6936V20.6933V20.693V20.6927V20.6925V20.6922V20.6919V20.6916V20.6913V20.6911V20.6908V20.6905V20.6902V20.6899V20.6897V20.6894V20.6891V20.6888V20.6885V20.6882V20.688V20.6877V20.6874V20.6871V20.6868V20.6865V20.6862V20.6859V20.6856V20.6854V20.6851V20.6848V20.6845V20.6842V20.6839V20.6836V20.6833V20.683V20.6827V20.6824V20.6821V20.6818V20.6815V20.6812V20.6809V20.6806V20.6803V20.68V20.6797V20.6794V20.6791V20.6788V20.6785V20.6782V20.6779V20.6776V20.6773V20.677V20.6767V20.6764V20.6761V20.6758V20.6754V20.6751V20.6748V20.6745V20.6742V20.6739V20.6736V20.6733V20.673V20.6726V20.6723V20.672V20.6717V20.6714V20.6711V20.6707V20.6704V20.6701V20.6698V20.6695V20.6692V20.6688V20.6685V20.6682V20.6679V20.6676V20.6672V20.6669V20.6666V20.6663V20.6659V20.6656V20.6653V20.665V20.6646V20.6643V20.664V20.6637V20.6633V20.663V20.6627V20.6623V20.662V20.6617V20.6613V20.661V20.6607V20.6603V20.66V20.6597V20.6593V20.659V20.6587V20.6583V20.658V20.6577V20.6573V20.657V20.6566V20.6563V20.656V20.6556V20.6553V20.6549V20.6546V20.6543V20.6539V20.6536V20.6532V20.6529V20.6525V20.6522V20.6518V20.6515V20.6512V20.6508V20.6505V20.6501V20.6498V20.6494V20.6491V20.6487V20.6484V20.648V20.6477V20.6473V20.647V20.6466V20.6463V20.6459V20.6455V20.6452V20.6448V20.6445V20.6441V20.6438V20.6434V20.643V20.6427V20.6423V20.642V20.6416V20.6412V20.6409V20.6405V20.6402V20.6398V20.6394V20.6391V20.6387V20.6383V20.638V20.6376V20.6373V20.6369V20.6365V20.6362V20.6358V20.6354V20.635V20.6347V20.6343V20.6339V20.6336V20.6332V20.6328V20.6325V20.6321V20.6317V20.6313V20.631V20.6306V20.6302V20.6298V20.6295V20.6291V20.6287V20.6283V20.628V20.6276V20.6272V20.6268V20.6264V20.6261V20.6257V20.6253V20.6249V20.6245V20.6242V20.6238V20.6234V20.623V20.6226V20.6222V20.6219V20.6215V20.6211V20.6207V20.6203V20.6199V20.6195V20.6191V20.6188V20.6184V20.618V20.6176V20.6172V20.6168V20.6164V20.616V20.6156V20.6152V20.6148V20.6145V20.6141V20.6137V20.6133V20.6129V20.6125V20.6121V20.6117V20.6113V20.6109V20.6105V20.6101V20.6097V20.6093V20.6089V20.6085V20.6081V20.6077V20.6073V20.6069V20.6065V20.6061V20.6057V20.6053V20.6049V20.6045V20.6041V20.6037V20.6033V20.6029V20.6024V20.602V20.6016V20.6012V20.6008V20.6004V20.6V20.5996V20.5992V20.5988V20.5984V20.5979V20.5975V20.5971V20.5967V20.5963V20.5959V20.5955V20.595V20.5946V20.5942V20.5938V20.5934V20.593V20.5926V20.5921V20.5917V20.5913V20.5909V20.5905V20.59V20.5896V20.5892V20.5888V20.5884V20.5879V20.5875V20.5871V20.5867V20.5862V20.5858V20.5854V20.585V20.5845V20.5841V20.5837V20.5833V20.5828V20.5824V20.582V20.5816V20.5811V20.5807V20.5803V20.5798V20.5794V20.579V20.5785V20.5781V20.5777V20.5773V20.5768V20.5764V20.576V20.5755V20.5751V20.5747V20.5742V20.5738V20.5733V20.5729V20.5725V20.572V20.5716V20.5712V20.5707V20.5703V20.5698V20.5694V20.569V20.5685V20.5681V20.5676V20.5672V20.5668V20.5663V20.5659V20.5654V20.565V20.5645V20.5641V20.5637V20.5632V20.5628V20.5623V20.5619V20.5614V20.561V20.5605V20.5601V20.5596V20.5592V20.5587V20.5583V20.5578V20.5574V20.5569V20.5565V20.556V20.5556V20.5551V20.5547V20.5542V20.5538V20.5533V20.5529V20.5524V20.552V20.5515V20.5511V20.5506V20.5501V20.5497V20.5492V20.5488V20.5483V20.5479V20.5474V20.5469V20.5465V20.546V20.5456V20.5451V20.5446V20.5442V20.5437V20.5432V20.5428V20.5423V20.5419V20.5414V20.5409V20.5405V20.54V20.5395V20.5391V20.5386V20.5381V20.5377V20.5372V20.5367V20.5363V20.5358V20.5353V20.5349V20.5344V20.5339V20.5335V20.533V20.5325V20.5321V20.5316V20.5311V20.5306V20.5302V20.5297V20.5292V20.5287V20.5283V20.5278V20.5273V20.5269V20.5264V20.5259V20.5254V20.5249V20.5245V20.524V20.5235V20.523V20.5226V20.5221V20.5216V20.5211V20.5206V20.5202C139.016 19.8282 138.917 19.1854 138.713 18.593C138.515 18.0016 138.227 17.4816 137.854 17.0394C137.48 16.5963 137.028 16.2481 136.502 15.9953L136.502 15.9951C135.968 15.7409 135.373 15.6149 134.714 15.6149C134.079 15.6149 133.49 15.7411 132.946 16.0002L132.946 16.0002L132.945 16.0006C132.406 16.263 131.939 16.61 131.54 17.0517C131.142 17.4933 130.828 18.013 130.603 18.6044C130.378 19.1969 130.263 19.8306 130.263 20.4997V20.5355C130.263 21.2601 130.383 21.931 130.63 22.5311C130.875 23.1274 131.205 23.6424 131.631 24.0744C132.056 24.5054 132.549 24.8367 133.105 25.068C133.105 25.0681 133.105 25.0681 133.105 25.0682L131.446 20.9979ZM131.446 20.9979C131.491 21.5009 131.612 21.9495 131.803 22.3412C132.011 22.7696 132.274 23.1315 132.585 23.4281C132.895 23.7244 133.25 23.9514 133.649 24.1095L131.446 20.9979ZM137.83 19.9605H131.442C131.487 19.5201 131.597 19.1055 131.764 18.72C131.948 18.297 132.186 17.9347 132.467 17.6274C132.753 17.3218 133.082 17.0854 133.461 16.9128C133.837 16.7413 134.244 16.6574 134.683 16.6574C135.193 16.6574 135.634 16.7566 136.009 16.9416C136.388 17.1342 136.706 17.385 136.966 17.6988C137.227 18.0205 137.43 18.3818 137.573 18.7936C137.703 19.166 137.789 19.5549 137.83 19.9605Z" fill="#8DC63F" stroke="#8DC63F" stroke-width="0.238883"/>
<path d="M142.921 22.6394V16.8777H145.999H146.118V16.7582V15.9495V15.8301H145.999H142.921V13.0269V12.9074H142.802H141.928H141.809V13.0269V15.8301H140.605H140.486V15.9495V16.7582V16.8777H140.605H141.809V22.7418C141.809 23.1825 141.872 23.5728 142.012 23.9088C142.151 24.2402 142.339 24.5165 142.589 24.7396C142.833 24.9624 143.119 25.1188 143.445 25.2205C143.77 25.3218 144.114 25.3693 144.482 25.3693C144.775 25.3693 145.044 25.3431 145.284 25.2896C145.523 25.2364 145.766 25.1515 146.012 25.0415L146.082 25.0099V24.9325V24.1084V23.9266L145.916 23.9988C145.66 24.1092 145.438 24.1833 145.242 24.2273C145.048 24.2711 144.842 24.291 144.625 24.291C144.109 24.291 143.702 24.1633 143.385 23.9213C143.085 23.693 142.921 23.278 142.921 22.6394Z" fill="#8DC63F" stroke="#8DC63F" stroke-width="0.238883"/>
<path d="M3.10519 6.96086C3.10519 6.59745 3.12051 6.23915 3.14605 5.88086C1.17466 8.43499 0 11.634 0 15.1146C0 17.203 0.429004 19.1941 1.18998 21.0009C3.10519 19.6906 5.32683 18.8051 7.72211 18.4724C4.86718 15.4729 3.10519 11.4191 3.10519 6.96086Z" fill="#95C03D"/>
<path d="M15.0783 0C12.923 0 10.875 0.455546 9.02109 1.27451C8.90873 1.32569 8.8168 1.4127 8.76573 1.52019C7.84132 3.38844 7.37146 5.52798 7.52467 7.79035C7.93836 14.0144 13.0609 18.9947 19.2866 19.2251C23.7707 19.3889 27.7339 17.1367 29.9964 13.6613C30.0475 13.5794 30.073 13.4821 30.0628 13.3849C29.2048 5.85556 22.8259 0 15.0783 0Z" fill="#F39540"/>
<path d="M21.497 23.6221C22.4929 24.7636 23.3203 26.0534 23.9536 27.4508C23.9689 27.4866 24.02 27.4968 24.0455 27.4661L25.2202 26.2889C25.5674 25.9715 25.9045 25.6337 26.2212 25.2856L26.2263 25.2805C27.3805 24.0111 28.3253 22.537 28.9944 20.9247C29.0148 20.8735 28.9535 20.8223 28.9076 20.853C26.7472 22.2913 24.2345 23.2331 21.5327 23.5249C21.4868 23.5351 21.4663 23.5914 21.497 23.6221Z" fill="#8DC63F"/>
<path d="M9.86719 22.7109C7.50255 22.7109 5.31666 23.4582 3.51892 24.7225C3.49338 24.743 3.48827 24.7788 3.5087 24.8044C3.64659 24.9682 3.78449 25.1269 3.92749 25.2855L3.9326 25.2907C4.24925 25.6387 4.58632 25.9765 4.93361 26.2939L15.0766 36.449L20.5566 30.9568C19.3104 26.212 14.9999 22.7109 9.86719 22.7109Z" fill="#5CBCE4"/>
<path opacity="0.83" d="M15.0772 37.6059L14.5818 37.1094L12.8454 35.3691C10.828 35.579 9.4082 36.0653 9.4082 36.6283C9.4082 37.3858 11.9465 38 15.0721 38C18.1977 38 20.736 37.3858 20.736 36.6283C20.736 36.0601 19.3213 35.579 17.2989 35.3691L15.5624 37.1094L15.0772 37.6059Z" fill="#D8D9D8"/>
</svg>
